<svg width="800" height="600" viewBox="0 0 800 600" xmlns="http://www.w3.org/2000/svg">
  <defs>
    <linearGradient id="bg" x1="0%" y1="0%" x2="100%" y2="100%">
      <stop offset="0%" style="stop-color:#182e7b"/>
      <stop offset="100%" style="stop-color:#324b9e"/>
    </linearGradient>
  </defs>
  <rect width="800" height="600" fill="url(#bg)"/>
  <g opacity="0.07" stroke="#fff" stroke-width="1">
    <line x1="0" y1="150" x2="800" y2="150"/><line x1="0" y1="300" x2="800" y2="300"/>
    <line x1="0" y1="450" x2="800" y2="450"/><line x1="200" y1="0" x2="200" y2="600"/>
    <line x1="400" y1="0" x2="400" y2="600"/><line x1="600" y1="0" x2="600" y2="600"/>
  </g>
  <rect x="310" y="100" width="100" height="360" rx="3" fill="rgba(100,130,220,0.7)"/>
  <g fill="rgba(255,255,255,0.25)">
    <rect x="326" y="120" width="18" height="16" rx="2"/><rect x="358" y="120" width="18" height="16" rx="2"/>
    <rect x="326" y="154" width="18" height="16" rx="2"/><rect x="358" y="154" width="18" height="16" rx="2"/>
    <rect x="326" y="188" width="18" height="16" rx="2"/><rect x="358" y="188" width="18" height="16" rx="2"/>
    <rect x="326" y="222" width="18" height="16" rx="2"/><rect x="358" y="222" width="18" height="16" rx="2"/>
    <rect x="326" y="256" width="18" height="16" rx="2"/><rect x="358" y="256" width="18" height="16" rx="2"/>
    <rect x="358" y="290" width="18" height="16" rx="2" fill="rgba(255,220,100,0.65)"/>
    <rect x="326" y="322" width="18" height="16" rx="2" fill="rgba(255,220,100,0.65)"/>
  </g>
  <rect x="338" y="390" width="36" height="70" rx="2" fill="rgba(255,255,255,0.12)"/>
  <rect x="190" y="210" width="90" height="250" rx="2" fill="rgba(70,90,170,0.55)"/>
  <rect x="520" y="240" width="90" height="220" rx="2" fill="rgba(70,90,170,0.55)"/>
  <rect x="0" y="460" width="800" height="140" fill="rgba(0,0,0,0.3)"/>
  <!-- key icon -->
  <g transform="translate(560,340)" opacity="0.38" stroke="#fff" stroke-linecap="round">
    <circle cx="30" cy="30" r="24" fill="none" stroke-width="5"/>
    <circle cx="30" cy="30" r="10" fill="none" stroke-width="4"/>
    <line x1="54" y1="30" x2="96" y2="30" stroke-width="5"/>
    <line x1="86" y1="30" x2="86" y2="46" stroke-width="5"/>
    <line x1="72" y1="30" x2="72" y2="42" stroke-width="5"/>
  </g>
  <!-- logo mark -->
  <g transform="translate(58,44)" opacity="0.45">
    <polygon points="0,0 0,52 14,44 14,28" fill="#fff"/>
    <polygon points="14,28 14,44 36,52 36,8" fill="rgba(255,255,255,0.55)"/>
    <polygon points="0,0 14,8 14,28 0,20" fill="rgba(255,255,255,0.75)"/>
  </g>
</svg>